Coordinates
version=1
nRows=24
nColumns=38
inDegrees=no

Units are S.I. units (second, meters, Newtons, ...)
If the header above contains a line with 'inDegrees', this indicates whether rotational values are in degrees (yes) or radians (no).

endheader
time	pelvis_tilt	pelvis_list	pelvis_rotation	pelvis_tx	pelvis_ty	pelvis_tz	hip_flexion_r	hip_adduction_r	hip_rotation_r	knee_angle_r	ankle_angle_r	subtalar_angle_r	mtp_angle_r	hip_flexion_l	hip_adduction_l	hip_rotation_l	knee_angle_l	ankle_angle_l	subtalar_angle_l	mtp_angle_l	lumbar_extension	lumbar_bending	lumbar_rotation	arm_flex_r	arm_add_r	arm_rot_r	elbow_flex_r	pro_sup_r	wrist_flex_r	wrist_dev_r	arm_flex_l	arm_add_l	arm_rot_l	elbow_flex_l	pro_sup_l	wrist_flex_l	wrist_dev_l
4.08	0.372602	1.50788	1.35668	0.791754	-0.321629	1.06634	0.0632235	-0.0399465	-0.103805	0.279149	-0.221289	0	0	0.0703998	-0.10154	-0.364683	0.420949	-0.216407	0	0	-0.423983	0.0796394	-0.0547448	1.07141	-0.329771	1.08152	0.504193	0.73095	0	0	0.692479	-0.365556	0.402999	0.865259	1.24149	0	0
4.09	0.37932	1.50488	1.34985	0.790628	-0.320288	1.06602	0.0654482	-0.0398283	-0.102636	0.280254	-0.221033	0	0	0.071705	-0.10156	-0.364362	0.420547	-0.215235	0	0	-0.421239	0.0793907	-0.0539782	1.0619	-0.33284	1.06307	0.509311	0.743794	0	0	0.686919	-0.362205	0.396654	0.867491	1.25249	0	0
4.1	0.383825	1.50181	1.34514	0.789482	-0.318876	1.06567	0.0676272	-0.0397521	-0.101491	0.281693	-0.21982	0	0	0.0730384	-0.101494	-0.364168	0.420188	-0.214162	0	0	-0.417786	0.0788539	-0.0531555	1.05203	-0.336288	1.04471	0.515209	0.756465	0	0	0.680739	-0.358561	0.390626	0.870057	1.26199	0	0
4.11	0.389677	1.49898	1.33925	0.788317	-0.317447	1.06535	0.0695761	-0.0396355	-0.100901	0.283793	-0.217954	0	0	0.0739415	-0.101379	-0.36358	0.41938	-0.213124	0	0	-0.414261	0.0785191	-0.0523303	1.04214	-0.340141	1.02757	0.521636	0.768954	0	0	0.674303	-0.354745	0.385026	0.873124	1.27019	0	0
4.12	0.397183	1.49686	1.33194	0.787068	-0.316028	1.06508	0.0704655	-0.0395556	-0.099971	0.284946	-0.216902	0	0	0.0740339	-0.101131	-0.362752	0.418516	-0.21207	0	0	-0.411053	0.0788611	-0.0519955	1.03387	-0.344136	1.01755	0.527848	0.777832	0	0	0.66758	-0.351463	0.380646	0.876674	1.27514	0	0
4.13	0.405812	1.49472	1.32375	0.78575	-0.314579	1.06478	0.0711247	-0.0393393	-0.0994548	0.286196	-0.215609	0	0	0.074119	-0.101025	-0.362005	0.417804	-0.210802	0	0	-0.407598	0.0794594	-0.0516183	1.02494	-0.348637	1.00584	0.534702	0.786519	0	0	0.6603	-0.347774	0.375893	0.880548	1.28044	0	0
4.14	0.411136	1.49238	1.3184	0.784491	-0.313037	1.0644	0.0717942	-0.039064	-0.0977059	0.286795	-0.213781	0	0	0.0742841	-0.100952	-0.36209	0.417264	-0.209036	0	0	-0.404286	0.0785854	-0.0508489	1.01311	-0.352986	0.984554	0.542418	0.804393	0	0	0.651653	-0.3437	0.368068	0.886821	1.29039	0	0
4.15	0.394648	1.48574	1.33518	0.783266	-0.311319	1.06369	0.0786494	-0.0397856	-0.0962231	0.290592	-0.2082	0	0	0.0793658	-0.0996848	-0.359571	0.415955	-0.206732	0	0	-0.397884	0.0724159	-0.0457797	0.972571	-0.353627	0.859431	0.557342	0.94307	0	0	0.642431	-0.330816	0.346242	0.893539	1.33801	0	0
4.16	0.399302	1.48384	1.33115	0.78188	-0.309776	1.06334	0.079082	-0.0398348	-0.0949112	0.291588	-0.205875	0	0	0.0792708	-0.0993404	-0.359029	0.415569	-0.204938	0	0	-0.394936	0.0722698	-0.0464092	0.962529	-0.356598	0.84563	0.562476	0.954574	0	0	0.631756	-0.326152	0.334986	0.900069	1.35396	0	0
4.17	0.403189	1.48174	1.328	0.780458	-0.308189	1.06294	0.0802733	-0.0400759	-0.0939286	0.294079	-0.203097	0	0	0.0793997	-0.098985	-0.358443	0.41534	-0.20287	0	0	-0.391535	0.072275	-0.047265	0.951996	-0.359416	0.832394	0.567506	0.96585	0	0	0.620382	-0.320724	0.322583	0.905968	1.37209	0	0
4.18	0.407114	1.47952	1.32485	0.778997	-0.30656	1.06251	0.0820315	-0.0404074	-0.0928412	0.297446	-0.200251	0	0	0.0797159	-0.0986614	-0.357733	0.415359	-0.200661	0	0	-0.387667	0.0724422	-0.0485079	0.941529	-0.361712	0.821041	0.571805	0.975677	0	0	0.608422	-0.315223	0.310497	0.911364	1.38936	0	0
4.19	0.41281	1.47677	1.31977	0.777565	-0.304857	1.062	0.0845783	-0.0403918	-0.0909632	0.30122	-0.197004	0	0	0.0805807	-0.0989061	-0.357656	0.415811	-0.198276	0	0	-0.38306	0.0728339	-0.049766	0.930885	-0.363601	0.80977	0.575701	0.984134	0	0	0.595901	-0.309938	0.298551	0.916728	1.40545	0	0
4.2	0.417612	1.47384	1.31586	0.776069	-0.303172	1.06145	0.0875315	-0.0403385	-0.0889951	0.305997	-0.193034	0	0	0.0818579	-0.0990434	-0.357219	0.416492	-0.19579	0	0	-0.378087	0.073448	-0.051226	0.920566	-0.365651	0.799355	0.579308	0.991916	0	0	0.583315	-0.304537	0.287268	0.921538	1.42142	0	0
4.21	0.422079	1.47101	1.31208	0.77456	-0.301497	1.06089	0.0909205	-0.0402703	-0.0865326	0.312287	-0.188721	0	0	0.0829151	-0.098963	-0.3565	0.41697	-0.193208	0	0	-0.373109	0.0740681	-0.0523327	0.910125	-0.368102	0.790291	0.58328	0.999158	0	0	0.5708	-0.298988	0.27681	0.925762	1.43695	0	0
4.22	0.428396	1.4685	1.30619	0.773104	-0.299826	1.06033	0.0949562	-0.0402768	-0.0840124	0.320364	-0.184804	0	0	0.0835301	-0.099078	-0.355996	0.417424	-0.190743	0	0	-0.368627	0.0747078	-0.0530322	0.899425	-0.370967	0.782432	0.58787	1.00595	0	0	0.558451	-0.293836	0.267238	0.929937	1.45088	0	0
4.23	0.436327	1.46656	1.29859	0.771645	-0.298154	1.05983	0.099084	-0.0404888	-0.0813566	0.329088	-0.18142	0	0	0.0835195	-0.0992353	-0.355397	0.417815	-0.188762	0	0	-0.364869	0.0756419	-0.0537244	0.888891	-0.373771	0.774908	0.592295	1.01165	0	0	0.546089	-0.289006	0.258435	0.933961	1.46356	0	0
4.24	0.440407	1.46371	1.29528	0.770014	-0.296419	1.05919	0.105347	-0.0413535	-0.0795677	0.340295	-0.1768	0	0	0.0847211	-0.0989856	-0.353758	0.418334	-0.186422	0	0	-0.360291	0.0767248	-0.0551523	0.877327	-0.376866	0.765492	0.598121	1.01852	0	0	0.532198	-0.283697	0.247009	0.939423	1.47958	0	0
4.25	0.444169	1.46076	1.29349	0.768073	-0.294556	1.05853	0.111598	-0.0425826	-0.0800094	0.35234	-0.171821	0	0	0.0862129	-0.0983772	-0.350896	0.418961	-0.184219	0	0	-0.355173	0.0784312	-0.057768	0.865094	-0.380417	0.757254	0.604453	1.02578	0	0	0.517652	-0.278044	0.235751	0.945117	1.49545	0	0
4.26	0.45187	1.45848	1.2868	0.766313	-0.292728	1.05803	0.118113	-0.0432461	-0.0783311	0.366303	-0.166871	0	0	0.0867518	-0.098336	-0.349053	0.419603	-0.182222	0	0	-0.351377	0.0801919	-0.0595763	0.853247	-0.384139	0.749018	0.611693	1.03202	0	0	0.503169	-0.272722	0.224684	0.951598	1.51	0	0
4.27	0.460718	1.45685	1.27748	0.764845	-0.290982	1.05768	0.125752	-0.0437181	-0.0733916	0.38253	-0.162343	0	0	0.0862737	-0.0986317	-0.348438	0.419966	-0.180415	0	0	-0.348907	0.0816318	-0.0604038	0.842388	-0.387807	0.740459	0.620296	1.03706	0	0	0.488729	-0.268316	0.213848	0.959232	1.52311	0	0
4.28	0.469209	1.4556	1.26795	0.763505	-0.289269	1.05739	0.134065	-0.0441774	-0.0669231	0.400532	-0.15798	0	0	0.0850977	-0.0988981	-0.347997	0.419944	-0.178561	0	0	-0.346872	0.0828861	-0.0611143	0.832489	-0.39118	0.731904	0.62963	1.04148	0	0	0.474639	-0.264863	0.203316	0.967718	1.5352	0	0
4.29	0.480385	1.45565	1.25596	0.76221	-0.287643	1.05717	0.14187	-0.0447677	-0.0603908	0.42038	-0.153905	0	0	0.0825168	-0.0991527	-0.34727	0.419869	-0.176555	0	0	-0.346341	0.0823496	-0.0610178	0.822887	-0.395133	0.723546	0.638808	1.04567	0	0	0.463107	-0.261803	0.194143	0.977113	1.54635	0	0
4.3	0.491967	1.45563	1.24351	0.760942	-0.286027	1.05697	0.15061	-0.0452028	-0.0532473	0.441362	-0.15099	0	0	0.0797616	-0.0992769	-0.346021	0.419187	-0.174691	0	0	-0.345675	0.0822519	-0.0610098	0.814709	-0.398533	0.717122	0.647075	1.04975	0	0	0.453301	-0.259468	0.186017	0.985514	1.5552	0	0
4.31	0.504045	1.45563	1.23034	0.759723	-0.284418	1.0568	0.160269	-0.0454184	-0.0452523	0.463721	-0.14947	0	0	0.0766739	-0.0992951	-0.344585	0.417947	-0.172867	0	0	-0.345185	0.0825237	-0.0607815	0.807684	-0.401519	0.711642	0.654832	1.05272	0	0	0.445378	-0.257435	0.178996	0.992425	1.56104	0	0
